# xmcd CD database file
#
# Track frame offsets:
#	150
#	16097
#	31662
#	49785
#	66122
#	84785
#	107775
#	125347
#	138580
#	151040
#
# Disc length: 2551 seconds
#
# Revision: 1
# Processed by: cddbd v1.4PL0 Copyright (c) Steve Scherf et al.
# Submitted via: CDex 1.50beta9
#
DISCID=6e09f50a
DTITLE=Johnny Winter - Scorchin' Blues
DYEAR=1992
DGENRE=Blues
TTITLE0=Walking By Myself
TTITLE1=Divin' Duck
TTITLE2=One Step At A Time
TTITLE3=Bladie Mae
TTITLE4=Mad Blues
TTITLE5=It Was Rainin'
TTITLE6=Mean Mistreater
TTITLE7=Mother-In-Law Blues
TTITLE8=Dallas
TTITLE9=Mean Town Blues
EXTD=YEAR: 1992
EXTT0=
EXTT1=
EXTT2=
EXTT3=
EXTT4=
EXTT5=
EXTT6=
EXTT7=
EXTT8=
EXTT9=
PLAYORDER=
